<svg width="15" height="15" viewBox="0 0 15 15" fill="none" xmlns="http://www.w3.org/2000/svg">
<path d="M6.20703 1.39355L6.89453 0.706055C7.20703 0.424805 7.67578 0.424805 7.95703 0.706055L14.0508 6.76855C14.332 7.08105 14.332 7.5498 14.0508 7.83105L7.95703 13.9248C7.67578 14.2061 7.20703 14.2061 6.89453 13.9248L6.20703 13.2373C5.92578 12.9248 5.92578 12.4561 6.20703 12.1436L9.98828 8.5498H1.01953C0.582031 8.5498 0.269531 8.2373 0.269531 7.7998V6.7998C0.269531 6.39355 0.582031 6.0498 1.01953 6.0498H9.98828L6.20703 2.4873C5.92578 2.1748 5.89453 1.70605 6.20703 1.39355Z" fill="#D3C9C1"/>
</svg>
