<svg width="23" height="23" viewBox="0 0 23 23" fill="none" xmlns="http://www.w3.org/2000/svg">
<path d="M22.4492 19.7852C22.8359 20.2148 22.8359 20.8594 22.4062 21.2461L21.2031 22.4492C20.8164 22.8789 20.1719 22.8789 19.7422 22.4492L15.4883 18.1953C15.2734 17.9805 15.1875 17.7227 15.1875 17.4648V16.7344C13.6406 17.9375 11.75 18.625 9.6875 18.625C4.74609 18.625 0.75 14.6289 0.75 9.6875C0.75 4.78906 4.74609 0.75 9.6875 0.75C14.5859 0.75 18.625 4.78906 18.625 9.6875C18.625 11.793 17.8945 13.6836 16.7344 15.1875H17.4219C17.6797 15.1875 17.9375 15.3164 18.1523 15.4883L22.4492 19.7852ZM9.6875 15.1875C12.6953 15.1875 15.1875 12.7383 15.1875 9.6875C15.1875 6.67969 12.6953 4.1875 9.6875 4.1875C6.63672 4.1875 4.1875 6.67969 4.1875 9.6875C4.1875 12.7383 6.63672 15.1875 9.6875 15.1875Z" fill="white"/>
</svg>
