<svg width="36" height="36" viewBox="0 0 36 36" fill="none" xmlns="http://www.w3.org/2000/svg">
<rect x="0.75" width="35.25" height="36" rx="17.625" fill="#150803"/>
<path d="M9.4375 12.4219C9.05078 12.4219 8.75 12.1211 8.75 11.7344V10.0156C8.75 9.67188 9.05078 9.32812 9.4375 9.32812H27.3125C27.6562 9.32812 28 9.67188 28 10.0156V11.7344C28 12.1211 27.6562 12.4219 27.3125 12.4219H9.4375ZM9.4375 19.2969C9.05078 19.2969 8.75 18.9961 8.75 18.6094V16.8906C8.75 16.5469 9.05078 16.2031 9.4375 16.2031H27.3125C27.6562 16.2031 28 16.5469 28 16.8906V18.6094C28 18.9961 27.6562 19.2969 27.3125 19.2969H9.4375ZM9.4375 26.1719C9.05078 26.1719 8.75 25.8711 8.75 25.4844V23.7656C8.75 23.4219 9.05078 23.0781 9.4375 23.0781H27.3125C27.6562 23.0781 28 23.4219 28 23.7656V25.4844C28 25.8711 27.6562 26.1719 27.3125 26.1719H9.4375Z" fill="white"/>
</svg>
